<svg xmlns="http://www.w3.org/2000/svg" width="128" height="128" viewBox="0 0 128 128" role="img" aria-labelledby="title desc">
  <title id="title">Magayisa logo</title>
  <desc id="desc">Location pin, road, and horizon mark for the Magayisa transport app</desc>
  <defs>
    <linearGradient id="bg" x1="0" y1="0" x2="1" y2="1">
      <stop offset="0%" stop-color="#0f172a"/>
      <stop offset="100%" stop-color="#0f766e"/>
    </linearGradient>
    <linearGradient id="pin" x1="0" y1="0" x2="1" y2="1">
      <stop offset="0%" stop-color="#22d3ee"/>
      <stop offset="100%" stop-color="#2563eb"/>
    </linearGradient>
    <linearGradient id="road" x1="0" y1="0" x2="0" y2="1">
      <stop offset="0%" stop-color="#f8fafc"/>
      <stop offset="100%" stop-color="#cbd5e1"/>
    </linearGradient>
  </defs>

  <rect x="6" y="6" width="116" height="116" rx="28" fill="url(#bg)"/>
  <circle cx="64" cy="64" r="44" fill="#ffffff" opacity="0.09"/>

  <path d="M64 20c-15.2 0-27.5 12.3-27.5 27.5 0 20.1 27.5 47.8 27.5 47.8S91.5 67.6 91.5 47.5C91.5 32.3 79.2 20 64 20z" fill="url(#pin)"/>
  <circle cx="64" cy="48" r="11.5" fill="#e0f2fe"/>

  <path d="M38 104c4.1-12.6 11.5-20.5 26-31.5 14.4 11 21.9 18.9 26 31.5z" fill="#0b1220"/>
  <path d="M58.8 104c0-10.8 1.8-18.6 5.2-27.2 3.4 8.6 5.2 16.5 5.2 27.2z" fill="url(#road)"/>
  <rect x="62.5" y="85" width="3" height="6" fill="#0b1220"/>
  <rect x="62.5" y="94" width="3" height="7" fill="#0b1220"/>
</svg>
